<svg xmlns="http://www.w3.org/2000/svg" width="520" height="520" viewBox="0 0 520 520">
  <rect x="40" y="40" width="440" height="440" rx="96" fill="#EEF2FF"/>
  <circle cx="260" cy="260" r="120" fill="#6366F1"/>
  <path d="M260 160c-72 0-130 58-130 130s58 130 130 130 130-58 130-130-58-130-130-130zm0 32c54 0 98 44 98 98s-44 98-98 98-98-44-98-98 44-98 98-98z" fill="#4F46E5" opacity="0.35"/>
  <path d="M260 158c-5 0-10 2-14 6l-64 64c-7 7-7 18 0 25s18 7 25 0l46-46 0 120c0 10 8 18 18 18s18-8 18-18V176c0-10-8-18-18-18z" fill="#ffffff"/>
  <text x="260" y="470" text-anchor="middle" font-family="Arial, Helvetica, sans-serif" font-size="42" font-weight="800" fill="#1E293B">TimeTrack</text>
</svg>

